<svg width="333" height="100" fill="none" xmlns="http://www.w3.org/2000/svg"><path d="M332.729 2.59a2.577 2.577 0 0 1-.01.15c-.082.787-.615 1.44-1.127 2.042-12.81 15.103-28.207 32.36-43.353 45.095-45.819 38.53-109.775 56.382-168.901 47.541-20.644-3.087-40.813-9.719-59.19-19.676C51.21 72.901 42.4 66.593 34.431 59.88c-7.787-6.561-16.063-14.798-23.97-21.969-.187-.17-.5-.003-.534.249-.4 2.944-4.241 15.797-4.626 16.74C3.574 59.13-.27 58.616.45 53.608c.847-5.894 2.106-10.654 3.51-16.358.47-1.915 1.05-6.074 2.507-7.397 1.724-1.566 4.254-1.183 6.58-1.258 5.237-.174 11.17-.681 16.425-.158 4.845.483 9.473 5.16 1.507 5.35-5.212.125-11.035.249-16.288.08a.202.202 0 0 0-.145.353c3.165 2.832 8.453 8.226 10.991 10.977 40.005 43.376 113.465 57 170.52 43.854A224.01 224.01 0 0 0 228.85 78.8c38.836-15.512 73.427-47.253 96.387-74.845 1.122-1.348 2.078-3.002 3.737-3.555 1.611-.537 3.797.529 3.755 2.192z" fill="#EB1C24"/></svg>