<svg width="148" height="40" fill="none" xmlns="http://www.w3.org/2000/svg"><path d="M21.917 28.241h.381v.239h-5.165v-.215h.357c.27 0 .5-.103.69-.31.19-.221.27-.46.238-.713l-1.07-11.973-5 11.116c-.444.968-.714 1.777-.809 2.428h-.238L5.208 15.602l-1.024 11.64c-.032.254.048.492.238.714.19.206.413.31.667.31h.38v.214H.852v-.239h.38c.445 0 .826-.134 1.143-.404.333-.27.532-.635.595-1.095l1.785-15.258h.238l6.641 14.353 6.499-14.353h.214l1.833 15.258c.079.635.396 1.079.952 1.333.238.11.5.166.785.166zm3.182 0c.413 0 .762-.142 1.047-.428.302-.301.46-.659.476-1.071v-13.21a1.47 1.47 0 0 0-.476-1.048 1.424 1.424 0 0 0-1.047-.429h-.31v-.238h5.213v.238h-.309a1.505 1.505 0 0 0-1.523 1.476v13.21c0 .413.15.77.452 1.072.301.286.658.428 1.071.428h.31v.239H24.79v-.239h.309zm8.757 0c.413 0 .762-.142 1.047-.428.302-.301.46-.659.476-1.071V13.555a1.47 1.47 0 0 0-.476-1.047 1.387 1.387 0 0 0-1.047-.453h-.31v-.238h5.213v.238h-.31c-.57 0-1.007.246-1.308.738a1.456 1.456 0 0 0-.215.762v14.187h3.404c1.175 0 2.071-.262 2.69-.786.619-.524 1.135-1.301 1.547-2.333h.238l-1.38 3.857h-9.878v-.239h.309z" fill="#000"/><path d="M22.298 28.241h.201v-.2h-.2v.2zm0 .239v.2h.201v-.2h-.2zm-5.165 0h-.201v.2h.2v-.2zm0-.215v-.2h-.201v.2h.2zm1.047-.31.148.137.005-.005-.153-.131zm.238-.713-.2.018v.007l.2-.025zm-1.07-11.973.2-.018-.069-.766-.315.701.183.083zm-5 11.116.183.084v-.002l-.183-.082zm-.809 2.428v.2h.174l.025-.171-.199-.03zm-.238 0-.183.084.054.117h.13v-.201zM5.208 15.602l.182-.084-.317-.687-.066.753.2.018zm-1.024 11.64.2.025v-.008l-.2-.017zm.238.714-.153.13.005.006.148-.136zm1.047.31h.201v-.202h-.2v.201zm0 .214v.2h.201v-.2h-.2zm-4.617 0H.65v.2h.202v-.2zm0-.239v-.2H.65v.2h.202zm1.523-.404-.127-.157-.003.004.13.153zm.595-1.095.2.027v-.004l-.2-.023zm1.785-15.258v-.201h-.179l-.02.178.2.023zm.238 0 .183-.084-.054-.117h-.129v.201zm6.641 14.353-.182.085.184.399.182-.4-.184-.084zm6.499-14.353v-.201h-.13l-.054.118.184.083zm.214 0 .2-.024-.022-.177h-.178v.201zm1.833 15.258-.2.024.2-.024zm.952 1.333.085-.182-.002-.001-.083.183zm.785.368h.381v-.403h-.38v.403zm.18-.202v.239h.402v-.239h-.402zm.201.037h-5.165v.403h5.165v-.403zm-4.964.202v-.215h-.402v.215h.402zm-.201-.014h.357v-.402h-.357v.402zm.357 0c.328 0 .611-.128.838-.374l-.296-.273a.705.705 0 0 1-.542.245v.402zm.843-.38c.221-.258.325-.55.285-.87l-.4.05c.024.19-.031.373-.19.559l.305.262zm.286-.862L17.547 15.25l-.4.036 1.071 11.973.4-.036zm-1.455-12.038-4.999 11.116.367.165 4.999-11.116-.367-.165zm-4.998 11.115c-.448.976-.727 1.805-.826 2.483l.398.058c.091-.624.353-1.413.793-2.373l-.365-.168zm-.627 2.31h-.238v.403h.238v-.402zm-.055.117L5.39 15.518l-.365.168 6.093 13.211.366-.168zM5.007 15.585l-1.023 11.64.4.035 1.024-11.64-.4-.035zM3.984 27.217c-.04.318.064.611.285.87l.306-.262c-.16-.186-.215-.369-.191-.558l-.4-.05zm.29.875c.224.243.498.374.815.374v-.402a.68.68 0 0 1-.52-.245l-.295.273zm.815.374h.38v-.402h-.38v.402zm.18-.2v.214h.401v-.215h-.402zm.2.012H.852v.403h4.617v-.403zm-4.416.202v-.239H.65v.239h.403zm-.201-.037h.38v-.403h-.38v.403zm.38 0c.489 0 .917-.15 1.273-.453l-.26-.306a1.505 1.505 0 0 1-1.013.356v.403zm1.27-.45c.376-.305.597-.717.667-1.224l-.398-.055c-.057.415-.233.732-.523.966l.253.313zm.668-1.228 1.785-15.258-.4-.046L2.77 26.718l.4.047zm1.585-15.08h.238v-.402h-.238v.402zm.056-.117 6.64 14.354.366-.17L5.176 11.4l-.365.168zm7.007 14.352 6.498-14.353-.367-.166-6.498 14.353.367.166zm6.315-14.235h.214v-.402h-.214v.402zm.014-.177 1.833 15.258.4-.048-1.833-15.258-.4.048zm1.833 15.259c.088.7.446 1.206 1.068 1.49l.167-.365c-.488-.223-.764-.605-.836-1.175l-.399.05zm1.067 1.49c.267.125.558.186.87.186v-.403c-.259 0-.491-.05-.7-.147l-.17.364zm5.1-.444-.143-.142.142.142zm.475-1.071.201.008v-.008h-.2zm0-13.21h.202v-.009l-.202.008zm-.476-1.048-.142.142.004.004.138-.146zm-1.357-.429h-.2v.201h.2v-.2zm0-.238v-.2h-.2v.2h.2zm5.213 0h.201v-.2h-.2v.2zm0 .238v.201h.201v-.2h-.2zm-1.38.429-.139-.146-.003.004.142.142zm-.452 1.047-.202-.008v.008h.202zm.452 14.282-.142.142.003.004.139-.146zm1.38.428h.201v-.2h-.2v.2zm0 .239v.2h.201v-.2h-.2zm-5.212 0h-.202v.2h.201v-.2zm0-.239v-.2h-.202v.2h.201zm.309.202c.465 0 .865-.164 1.19-.488l-.285-.284c-.247.247-.545.37-.905.37v.402zm1.19-.488c.335-.336.516-.74.534-1.205l-.402-.016c-.014.36-.15.67-.417.937l.284.284zm.534-1.213v-13.21h-.402v13.21h.402zm0-13.219a1.67 1.67 0 0 0-.538-1.185l-.277.292c.264.25.4.55.413.909l.402-.016zm-.535-1.181a1.625 1.625 0 0 0-1.189-.488v.402c.36 0 .658.123.905.37l.284-.284zm-1.189-.488h-.31v.402h.31v-.402zm-.108.201v-.238h-.403v.238h.403zm-.201-.037h5.212v-.402H24.79v.402zm5.011-.2v.237h.402v-.238h-.402zm.201.036h-.309v.402h.31v-.402zm-.309 0c-.465 0-.87.163-1.21.484l.277.292c.265-.25.572-.374.933-.374v-.402zm-1.213.488c-.323.322-.494.72-.511 1.181l.401.016a1.31 1.31 0 0 1 .394-.913l-.284-.284zm-.512 1.19v13.21h.403v-13.21h-.403zm0 13.21c0 .468.174.875.512 1.213l.284-.284a1.263 1.263 0 0 1-.393-.93h-.403zm.515 1.217c.34.32.745.484 1.21.484v-.403c-.36 0-.668-.122-.933-.373l-.277.292zm1.21.484h.31v-.403h-.31v.403zm.108-.202v.239h.402v-.239h-.402zm.201.037H24.79v.403h5.212v-.403zm-5.011.202v-.239h-.403v.239h.403zm-.201-.037h.309v-.403h-.31v.403zm10.113-.63-.142-.142.142.142zm.476-1.071.201.008v-.008h-.2zm0-13.187h.202v-.008l-.202.008zm-.476-1.047-.146.138.008.008.138-.146zm-1.356-.453h-.202v.201h.202v-.2zm0-.238v-.2h-.202v.2h.202zm5.212 0h.202v-.2h-.202v.2zm0 .238v.201h.202v-.2h-.202zm-1.618.738-.172-.105v.002l.172.103zm-.215 14.949h-.2v.2h.2v-.2zm6.094-.786.13.154-.13-.154zm1.547-2.333v-.2h-.136l-.05.126.186.074zm.238 0 .19.068.096-.269h-.286v.201zm-1.38 3.857v.2h.141l.048-.133-.19-.067zm-9.878 0h-.202v.2h.202v-.2zm0-.239v-.2h-.202v.2h.202zm.309.202c.465 0 .865-.164 1.19-.488l-.285-.284c-.247.247-.545.37-.905.37v.402zm1.19-.488c.336-.336.516-.74.534-1.205l-.402-.016c-.014.36-.15.67-.417.937l.284.284zm.534-1.213V13.555h-.402v13.187h.402zm0-13.195a1.67 1.67 0 0 0-.538-1.185l-.277.292c.264.25.4.549.413.909l.402-.016zm-.53-1.178a1.588 1.588 0 0 0-1.194-.515v.402c.357 0 .653.128.901.39l.292-.277zm-1.194-.515h-.31v.402h.31v-.402zm-.108.201v-.238h-.403v.238h.403zm-.201-.037h5.212v-.402h-5.212v.402zm5.011-.2v.237h.403v-.238h-.403zm.201.036h-.31v.402h.31v-.402zm-.31 0c-.641 0-1.142.283-1.48.834l.343.21c.266-.433.638-.642 1.138-.642v-.402zm-1.48.836a1.657 1.657 0 0 0-.244.865h.403c0-.232.06-.45.185-.658l-.345-.207zm-.244.865v14.187h.403V13.555h-.403zm.201 14.388h3.404v-.402h-3.404v.402zm3.404 0c1.201 0 2.152-.268 2.82-.833l-.26-.307c-.57.481-1.412.738-2.56.738v.402zm2.82-.833c.652-.552 1.184-1.36 1.604-2.412l-.373-.15c-.405 1.012-.905 1.759-1.49 2.255l.259.307zm1.417-2.285h.238v-.403h-.238v.402zm.049-.27-1.38 3.857.378.135 1.38-3.856-.378-.135zm-1.191 3.723h-9.878v.403h9.878v-.403zm-9.677.202v-.239h-.403v.239h.403zm-.201-.037h.309v-.403h-.31v.403zM78.236 28.241c.413 0 .762-.142 1.048-.428a1.47 1.47 0 0 0 .476-1.047V20.6h-9.736v6.14c0 .413.15.77.452 1.072.302.286.659.428 1.072.428h.309v.239h-5.213v-.239h.31c.412 0 .761-.142 1.047-.428.301-.301.46-.659.476-1.071v-13.21a1.47 1.47 0 0 0-.476-1.048 1.424 1.424 0 0 0-1.047-.429h-.31v-.238h5.213v.238h-.31a1.505 1.505 0 0 0-1.523 1.476v6.356h9.736V13.53c-.016-.571-.27-1-.762-1.285a1.595 1.595 0 0 0-.762-.19h-.31v-.239h5.214v.238h-.31c-.412 0-.77.151-1.07.453a1.511 1.511 0 0 0-.453 1.047v13.187c.016.412.166.77.452 1.071.302.286.659.428 1.071.428h.31v.239h-5.213v-.239h.31zm13.389-15.686h-1.523v14.187c0 .412.142.77.428 1.071.302.286.666.428 1.095.428h.286l.023.239h-5.212v-.239h.309c.412 0 .762-.142 1.047-.428a1.47 1.47 0 0 0 .476-1.047V13.555a1.47 1.47 0 0 0-.476-1.047 1.388 1.388 0 0 0-1.047-.453h-.31v-.238h6.427c1.444 0 2.579.405 3.404 1.214.825.794 1.238 1.833 1.238 3.118 0 1.27-.397 2.373-1.19 3.31-.778.92-1.73 1.38-2.857 1.38.239.11.516.333.834.666.333.318.626.65.88 1 1.365 1.952 2.254 3.158 2.666 3.618.413.444.706.754.88.928.175.159.366.318.572.476.206.16.413.286.619.381.46.222.952.333 1.476.333v.239h-1.309a5.02 5.02 0 0 1-1.904-.358c-.588-.253-1.032-.507-1.333-.761-.286-.27-.54-.524-.762-.762-.206-.254-.794-1.079-1.762-2.476-.968-1.396-1.531-2.19-1.69-2.38a9.048 9.048 0 0 0-.5-.595c-.507-.54-1.015-.81-1.523-.81v-.237c.127.016.294.024.5.024.206 0 .46-.008.762-.024 1.967-.048 3.205-.873 3.713-2.476.095-.317.143-.61.143-.88v-.548c-.032-1.063-.31-1.92-.833-2.57-.524-.651-1.23-1-2.119-1.048-.38-.016-.857-.024-1.428-.024zm26.814 15.686h.19v.239h-5.355v-.239h.214c.333 0 .579-.103.738-.309.174-.222.262-.428.262-.619 0-.19-.032-.38-.096-.571l-1.523-4.047h-6.427l-1.595 4.07a1.81 1.81 0 0 0-.095.572c0 .175.079.373.238.595.175.206.429.31.762.31h.214v.238h-4.784v-.239h.214c.397 0 .785-.127 1.166-.38.381-.254.69-.627.928-1.12l5.38-12.805c.587-1.286.881-2.103.881-2.452h.214l6.379 15.258c.222.492.524.865.905 1.119.381.253.777.38 1.19.38zm-11.711-6.26h5.855l-2.856-7.64-2.999 7.64z" fill="#000"/><path d="m79.284 27.813-.139-.146-.004.004.143.142zm.476-1.047.2.007v-.007h-.2zm0-6.165h.2V20.4h-.2v.2zm-9.736 0V20.4h-.2v.2h.2zm.452 7.212-.142.142.004.004.138-.146zm1.381.428h.201v-.2h-.201v.2zm0 .239v.2h.201v-.2h-.201zm-5.213 0h-.201v.2h.201v-.2zm0-.239v-.2h-.201v.2h.201zm1.357-.428-.142-.142.142.142zm.476-1.071.201.008v-.008h-.201zm0-13.21h.201v-.009l-.201.008zm-.476-1.048-.142.142.004.004.138-.146zm-1.357-.429h-.201v.201h.201v-.2zm0-.238v-.2h-.201v.2h.201zm5.213 0h.201v-.2h-.201v.2zm0 .238v.201h.201v-.2h-.201zm-1.38.429-.139-.146-.004.004.142.142zm-.453 1.047-.2-.008v.008h.2zm0 6.356h-.2v.2h.2v-.2zm9.736 0v.2h.2v-.2h-.2zm0-6.356h.2v-.006l-.2.006zm-.762-1.285.101-.174-.006-.004-.095.178zm-1.071-.19h-.201v.2h.2v-.2zm0-.239v-.2h-.201v.2h.2zm5.213 0h.2v-.2h-.2v.2zm0 .238v.201h.2v-.2h-.2zm-1.38.453.141.142-.142-.142zm-.453 1.047-.201-.008v.008h.2zm0 13.187h-.201v.008l.2-.008zm.452 1.071-.146.139.008.007.138-.146zm1.38.428h.202v-.2h-.201v.2zm0 .239v.2h.202v-.2h-.201zm-5.212 0h-.201v.2h.2v-.2zm0-.239v-.2h-.201v.2h.2zm.31.202c.464 0 .865-.164 1.189-.488l-.285-.284c-.247.247-.544.37-.905.37v.402zm1.185-.484c.34-.322.52-.72.539-1.186l-.402-.015c-.014.36-.15.66-.414.909l.277.292zm.539-1.193V20.6h-.403v6.165h.403zM79.76 20.4h-9.736v.402h9.736V20.4zm-9.937.2v6.142h.402V20.6h-.402zm0 6.142c0 .468.173.875.511 1.213l.285-.284a1.263 1.263 0 0 1-.394-.93h-.402zm.515 1.217c.339.32.745.484 1.21.484v-.403c-.361 0-.669-.122-.933-.373l-.277.292zm1.21.484h.309v-.403h-.31v.403zm.108-.202v.239h.402v-.239h-.402zm.201.037h-5.213v.403h5.213v-.403zm-5.012.202v-.239h-.402v.239h.402zm-.2-.037h.309v-.403h-.31v.403zm.309 0c.464 0 .865-.164 1.19-.488l-.285-.284c-.247.247-.545.37-.905.37v.402zm1.19-.488c.335-.336.516-.74.534-1.205l-.402-.016c-.014.36-.15.67-.417.937l.284.284zm.534-1.213v-13.21h-.402v13.21h.402zm0-13.219a1.67 1.67 0 0 0-.539-1.185l-.276.292c.263.25.4.55.413.909l.402-.016zm-.535-1.181a1.625 1.625 0 0 0-1.19-.488v.402c.361 0 .659.123.906.37l.284-.284zm-1.19-.488h-.309v.402h.31v-.402zm-.108.201v-.238h-.402v.238h.402zm-.2-.037h5.212v-.402h-5.213v.402zm5.01-.2v.237h.403v-.238h-.402zm.202.036h-.31v.402h.31v-.402zm-.31 0c-.464 0-.87.163-1.209.484l.277.292c.264-.25.572-.374.933-.374v-.402zm-1.213.488c-.322.322-.493.72-.51 1.181l.401.016a1.31 1.31 0 0 1 .394-.913l-.285-.284zm-.51 1.19v6.355h.401V13.53h-.402zm.2 6.556h9.736v-.403h-9.736v.403zm9.937-.201V13.53h-.403v6.356h.403zm0-6.362c-.018-.64-.31-1.132-.862-1.453l-.202.348c.431.25.648.615.662 1.117l.402-.012zm-.868-1.457a1.796 1.796 0 0 0-.857-.214v.402c.237 0 .458.056.667.167l.19-.355zm-.857-.214h-.31v.402h.31v-.402zm-.108.201v-.238h-.402v.238h.402zm-.201-.037h5.213v-.402h-5.213v.402zm5.012-.2v.237h.402v-.238h-.402zm.2.036h-.309v.402h.31v-.402zm-.309 0c-.468 0-.875.174-1.213.511l.284.285c.266-.265.572-.394.93-.394v-.402zm-1.213.511c-.322.323-.493.72-.511 1.182l.402.016c.014-.364.144-.664.393-.913l-.284-.285zm-.511 1.19v13.187h.402V13.555h-.402zm0 13.195a1.8 1.8 0 0 0 .507 1.201l.292-.276a1.398 1.398 0 0 1-.397-.94l-.402.015zm.515 1.209c.338.32.745.484 1.21.484v-.403c-.362 0-.67-.122-.934-.373l-.276.292zm1.21.484h.309v-.403h-.31v.403zm.108-.202v.239h.402v-.239h-.402zm.2.037h-5.212v.403h5.213v-.403zm-5.011.202v-.239h-.402v.239h.402zm-.201-.037h.31v-.403h-.31v.403zm12.175-15.888v-.2H89.9v.2h.202zm.428 15.258-.146.139.008.007.138-.146zm1.38.428.2-.02-.017-.18h-.182v.2zm.024.239v.2h.223l-.022-.22-.2.02zm-5.212 0h-.202v.2h.202v-.2zm0-.239v-.2h-.202v.2h.202zm1.356-.428-.138-.146-.004.004.142.142zm.476-1.047.201.007v-.007h-.2zm0-13.211h.202v-.008l-.202.008zm-.476-1.047-.146.138.008.008.138-.146zm-1.356-.453h-.202v.201h.202v-.2zm0-.238v-.2h-.202v.2h.202zm9.83 1.214-.14.144v.001l.14-.145zm.048 6.427-.154-.13.154.13zm-2.857 1.38v-.2l-.085.383.085-.182zm.834.667-.146.139.007.007.139-.146zm.88 1 .165-.115-.002-.003-.163.118zm2.666 3.618-.15.134.003.003.147-.137zm.88.928-.141.143.007.006.135-.149zm.572.476.123-.159-.123.16zm.619.381.088-.18-.004-.002-.084.182zm1.476.333h.201v-.2h-.201v.2zm0 .239v.2h.201v-.2h-.201zm-3.213-.358-.08.185.004.002.076-.187zm-1.333-.761-.139.146.009.008.13-.154zm-.762-.762-.157.127.01.01.147-.137zM94.6 24.123l.166-.114-.166.114zm-1.69-2.38-.16.123.006.006.154-.129zm-.5-.595.149-.136-.002-.002-.147.138zm-1.523-.81h-.201v.202h.201v-.201zm0-.237.025-.2-.226-.028v.228h.201zm1.262 0-.005-.201h-.006l.01.2zm3.713-2.476.192.061v-.003l-.192-.058zm.143-1.428h.2v-.006l-.2.006zm-2.952-3.618.01-.2h-.002l-.008.2zm-1.428-.225h-1.523v.402h1.523v-.402zm-1.725.201v14.187h.403V12.555H89.9zm0 14.187c0 .464.163.87.484 1.21l.292-.277a1.304 1.304 0 0 1-.373-.933H89.9zm.492 1.217c.34.322.755.484 1.233.484v-.403c-.379 0-.694-.124-.957-.373l-.276.292zm1.233.484h.286v-.403h-.286v.403zm.085-.181.024.238.4-.04-.023-.239-.4.04zm.224.016h-5.212v.403h5.212v-.403zm-5.011.202v-.239h-.403v.239h.403zm-.201-.037h.309v-.403h-.31v.403zm.309 0c.465 0 .865-.164 1.19-.488l-.285-.284c-.247.247-.545.37-.905.37v.402zm1.186-.484c.339-.322.52-.72.538-1.186l-.402-.015c-.013.36-.15.66-.413.909l.277.292zm.538-1.193V13.555h-.402v13.21h.403zm0-13.219a1.67 1.67 0 0 0-.538-1.185l-.277.292c.264.25.4.549.413.909l.402-.016zm-.53-1.178a1.588 1.588 0 0 0-1.194-.515v.402c.357 0 .653.128.901.39l.292-.277zm-1.194-.515h-.31v.402h.31v-.402zm-.108.201v-.238h-.403v.238h.403zm-.201-.037h6.426v-.402h-6.426v.402zm6.426 0c1.406 0 2.485.393 3.263 1.157l.282-.287c-.872-.855-2.062-1.272-3.545-1.272v.402zm3.265 1.158c.78.75 1.176 1.735 1.176 2.973h.402c0-1.332-.43-2.427-1.3-3.263l-.278.29zm1.176 2.973c0 1.224-.381 2.28-1.143 3.18l.307.26c.826-.975 1.238-2.124 1.238-3.44h-.402zm-1.143 3.18c-.742.878-1.64 1.309-2.703 1.309v.402c1.19 0 2.198-.49 3.01-1.452l-.307-.26zm-2.788 1.692c.205.095.462.296.773.623l.291-.277c-.323-.34-.622-.584-.893-.71l-.17.364zm.78.63c.325.31.61.634.857.972l.325-.236a7.57 7.57 0 0 0-.905-1.027l-.277.29zm.854.97c1.363 1.948 2.259 3.165 2.681 3.636l.3-.268c-.403-.45-1.284-1.644-2.65-3.6l-.33.231zm2.684 3.639c.412.444.708.756.886.933l.284-.284a39.942 39.942 0 0 1-.875-.923l-.295.274zm.893.94c.179.163.373.325.584.487l.245-.319a8.913 8.913 0 0 1-.559-.465l-.27.297zm.584.487c.216.166.435.301.657.404l.168-.365a3.058 3.058 0 0 1-.58-.358l-.245.319zm.654.402a3.55 3.55 0 0 0 1.563.354v-.403c-.494 0-.956-.104-1.388-.313l-.175.362zm1.362.152v.239h.402v-.239h-.402zm.201.037h-1.309v.403h1.309v-.403zm-1.309 0a4.822 4.822 0 0 1-1.829-.342l-.151.373a5.222 5.222 0 0 0 1.98.372v-.403zm-1.825-.34c-.579-.25-1.003-.495-1.283-.731l-.26.308c.324.271.788.535 1.384.792l.16-.37zm-1.274-.723a16.981 16.981 0 0 1-.753-.753l-.294.274c.225.242.482.499.77.771l.277-.293zm-.744-.743c-.2-.246-.782-1.063-1.752-2.463l-.33.23c.965 1.392 1.557 2.225 1.77 2.487l.312-.254zm-1.752-2.463c-.965-1.391-1.535-2.195-1.701-2.395l-.31.258c.152.181.709.965 1.68 2.366l.33-.23zM93.07 21.62a9.162 9.162 0 0 0-.511-.609l-.297.272c.17.186.334.38.489.582l.319-.245zm-.513-.61c-.528-.562-1.085-.873-1.67-.873v.402c.431 0 .89.228 1.377.746l.293-.276zm-1.469-.672V20.1h-.402v.238h.402zm-.226-.039a4.4 4.4 0 0 0 .525.026v-.402c-.202 0-.36-.008-.475-.023l-.05.4zm.525.026c.211 0 .469-.008.772-.024l-.02-.402c-.3.016-.55.024-.752.024v.402zm.766-.024c1.01-.025 1.852-.249 2.511-.689.662-.44 1.124-1.088 1.39-1.927l-.384-.122c-.242.764-.653 1.33-1.229 1.715-.578.386-1.34.598-2.297.62l.01.403zm3.902-2.619c.1-.332.15-.645.15-.939h-.401c0 .247-.044.52-.135.823l.386.116zm.15-.939V16.198h-.401V16.745h.402zm0-.553c-.032-1.095-.319-1.998-.877-2.69l-.313.251c.49.609.758 1.42.789 2.451l.402-.012zm-.877-2.69c-.562-.7-1.323-1.072-2.264-1.123l-.022.402c.836.045 1.488.37 1.973.972l.313-.252zm-2.267-1.123a35.417 35.417 0 0 0-1.436-.024v.402c.57 0 1.043.008 1.42.024l.016-.402zm25.568 15.863h.201v-.2h-.201v.2zm0 .239v.2h.201v-.2h-.201zm-5.355 0h-.202v.2h.202v-.2zm0-.239v-.2h-.202v.2h.202zm.952-.309-.158-.124-.002.001.16.123zm.166-1.19.191-.064-.002-.007-.189.07zm-1.523-4.047.188-.07-.049-.13h-.139v.2zm-6.427 0v-.2h-.137l-.05.127.187.073zm-1.595 4.07-.187-.073-.004.01.191.064zm.143 1.167-.164.117.005.007.006.006.153-.13zm.976.31h.201v-.202h-.201v.201zm0 .238v.2h.201v-.2h-.201zm-4.784 0h-.202v.2h.202v-.2zm0-.239v-.2h-.202v.2h.202zm1.38-.38.112.167-.112-.167zm.928-1.12.182.089.004-.01-.186-.078zm5.38-12.805-.183-.084-.002.006.185.078zm.881-2.452v-.201h-.201v.201h.201zm.214 0 .185-.078-.051-.123h-.134v.201zm6.379 15.258-.185.078.002.005.183-.083zm.905 1.119-.112.167.112-.167zm-10.521-5.88-.188-.073-.107.274h.295v-.2zm5.855 0v.201h.29l-.101-.271-.189.07zm-2.856-7.64.188-.071-.184-.492-.191.489.187.073zm8.712 14.102h.19v-.403h-.19v.403zm-.011-.202v.239h.402v-.239h-.402zm.201.037h-5.355v.403h5.355v-.403zm-5.154.202v-.239h-.403v.239h.403zm-.201-.037h.214v-.403h-.214v.403zm.214 0c.376 0 .69-.12.897-.388l-.319-.246c-.11.144-.288.231-.578.231v.403zm.896-.387c.189-.24.305-.49.305-.743h-.403c0 .128-.059.292-.218.495l.316.248zm.305-.743c0-.213-.036-.425-.106-.635l-.382.127c.058.172.085.34.085.508h.403zm-.108-.642-1.524-4.046-.376.141 1.523 4.047.377-.142zm-1.712-4.177h-6.427v.402h6.427v-.402zm-6.614.128-1.595 4.07.374.147 1.595-4.07-.374-.147zm-1.599 4.08c-.069.21-.105.422-.105.635h.402c0-.168.028-.337.085-.508l-.382-.127zm-.105.635c0 .234.105.474.275.712l.328-.234c-.147-.206-.201-.363-.201-.478h-.402zm.286.725c.221.262.537.38.915.38v-.402c-.289 0-.481-.087-.608-.238l-.307.26zm.915.38h.214v-.402h-.214v.403zm.013-.2v.238h.402v-.239h-.402zm.201.036h-4.784v.403h4.784v-.403zm-4.583.202v-.239h-.403v.239h.403zm-.201-.037h.214v-.403h-.214v.403zm.214 0c.442 0 .869-.143 1.278-.415l-.223-.335c-.353.236-.704.347-1.055.347v.403zm1.278-.415c.416-.277.747-.68.997-1.198l-.362-.176c-.225.466-.513.809-.858 1.04l.223.334zm1.002-1.208 5.379-12.806-.37-.156-5.38 12.806.371.156zm5.377-12.8c.295-.646.517-1.177.667-1.593.146-.408.232-.73.232-.943h-.402c0 .136-.062.397-.209.807-.144.4-.361.92-.654 1.561l.366.167zm.698-2.335h.214v-.402h-.214v.402zm.028-.123 6.38 15.257.371-.155-6.38-15.258-.371.156zm6.382 15.263c.235.52.559.925.976 1.203l.223-.335c-.344-.23-.623-.57-.833-1.034l-.366.166zm.976 1.203c.41.273.845.415 1.302.415v-.403c-.369 0-.727-.112-1.079-.347l-.223.335zm-10.409-5.846h5.855v-.402h-5.855v.402zm6.044-.271-2.857-7.641-.377.14 2.857 7.642.377-.141zm-3.232-7.644-3 7.64.375.148 2.999-7.641-.374-.147zM65.381 28.017h.233v.29h-6.547v-.29h.261c.408 0 .709-.126.902-.378.214-.272.32-.524.32-.757 0-.233-.038-.466-.116-.698l-1.862-4.947h-7.857l-1.95 4.976a2.197 2.197 0 0 0-.116.698c0 .213.097.456.291.728.214.252.524.378.931.378h.262v.29h-5.848v-.29h.262c.485 0 .96-.155 1.425-.466.466-.31.844-.766 1.135-1.367l6.576-15.655c.718-1.572 1.077-2.57 1.077-2.997h.262l7.798 18.652c.272.601.64 1.057 1.106 1.367.466.31.95.466 1.455.466zm-14.316-7.653h7.158l-3.492-9.34-3.666 9.34z" fill="#000"/><path d="M65.614 28.017h.2v-.201h-.2v.2zm0 .29v.202h.2v-.201h-.2zm-6.547 0h-.202v.202h.202v-.201zm0-.29v-.201h-.202v.2h.202zm1.163-.378-.158-.125v.002l.158.123zm.204-1.455.191-.064-.002-.007-.189.07zm-1.862-4.947.188-.07-.049-.131h-.14v.201zm-7.857 0v-.201h-.137l-.05.128.187.073zm-1.95 4.976-.187-.074-.003.01.19.064zm.175 1.426-.163.117.005.006.005.006.153-.13zm1.193.378h.201v-.201h-.2v.2zm0 .29v.202h.201v-.201h-.2zm-5.848 0h-.201v.202h.2v-.201zm0-.29v-.201h-.201v.2h.2zm1.687-.466.112.168-.112-.168zm1.135-1.367.181.087.005-.01-.186-.077zm6.576-15.655-.183-.084-.002.006.185.078zm1.077-2.997V7.33h-.201v.202h.201zm.262 0 .186-.078-.052-.124h-.134v.202zm7.798 18.652-.185.077.002.006.183-.083zm1.106 1.367-.111.168.111-.168zm-12.861-7.187-.188-.073-.107.274h.294v-.201zm7.158 0v.201h.29l-.102-.271-.188.07zm-3.492-9.34.188-.071-.183-.492-.192.489.187.073zm10.65 17.194h.233v-.402h-.233v.402zm.032-.201v.29h.402v-.29h-.402zm.2.09h-6.546v.402h6.547v-.402zm-6.345.2v-.29h-.403v.29h.403zm-.201-.089h.261v-.402h-.261v.402zm.261 0c.451 0 .82-.142 1.062-.457l-.319-.245c-.145.19-.378.3-.742.3v.402zm1.06-.455c.229-.29.364-.586.364-.881h-.403c0 .17-.078.38-.277.632l.317.249zm.364-.881c0-.256-.043-.51-.127-.762l-.382.127c.072.214.106.425.106.635h.403zm-.13-.77-1.862-4.946-.376.142 1.862 4.947.377-.142zm-2.05-5.076h-7.857v.402h7.857v-.402zm-8.044.128-1.95 4.975.375.147 1.95-4.976-.375-.146zm-1.953 4.985a2.397 2.397 0 0 0-.127.762h.402c0-.21.035-.421.107-.635l-.382-.127zm-.127.762c0 .273.123.557.329.845l.327-.234c-.182-.256-.254-.457-.254-.61h-.402zm.339.857c.26.308.633.45 1.084.45v-.402c-.363 0-.61-.11-.777-.307l-.307.26zm1.084.45h.262v-.402h-.262v.402zm.061-.201v.29h.402v-.29h-.402zm.201.09h-5.848v.402h5.848v-.402zm-5.647.2v-.29h-.402v.29h.402zm-.201-.089h.262v-.402h-.262v.402zm.262 0c.53 0 1.044-.17 1.537-.5l-.223-.334c-.438.292-.875.432-1.314.432v.402zm1.537-.5c.5-.333.9-.82 1.204-1.447l-.362-.175c-.278.575-.635 1.001-1.065 1.288l.223.335zm1.209-1.456 6.576-15.655-.371-.156-6.576 15.655.37.156zm6.573-15.65c.36-.788.632-1.436.814-1.943.18-.498.281-.885.281-1.137h-.402c0 .174-.078.5-.257 1.001a25.913 25.913 0 0 1-.801 1.912l.365.167zm.894-2.88h.262V7.33h-.262v.403zm.076-.123 7.799 18.652.37-.155-7.797-18.652-.372.155zm7.801 18.657c.284.63.675 1.118 1.178 1.453l.223-.335c-.43-.286-.775-.71-1.034-1.283l-.367.166zm1.178 1.453c.494.33 1.018.499 1.566.499v-.402c-.46 0-.907-.141-1.343-.432l-.223.335zm-12.75-7.154h7.158v-.402h-7.158v.402zm7.346-.271-3.492-9.341-.376.14 3.491 9.341.377-.14zm-3.867-9.344-3.667 9.34.375.148 3.666-9.341-.374-.147zM0 6.698h51.159v.575H0zM58.665 6.698h60.271v.575H58.665zM0 33.704h118.936v.571H0z" fill="#000"/><path d="m135.551 4.718-10.248-1.431V15.71l10.248 1.374V4.718z" fill="url(#a)"/><path d="m147.643 21.908-10.248-1.431V32.9l10.248 1.374V21.908z" fill="url(#b)"/><path d="m147.643 6.125-7.404-2.838V15.71l7.404 2.781V6.125z" fill="url(#c)"/><path d="m132.794 21.908-7.405-2.838v12.424l7.405 2.781V21.908z" fill="url(#d)"/><defs><linearGradient id="a" x1="135.551" y1="11.402" x2="125.303" y2="11.402" gradientUnits="userSpaceOnUse"><stop stop-color="#EB1C24"/><stop offset="1" stop-color="#910507"/></linearGradient><linearGradient id="b" x1="147.643" y1="28.592" x2="137.395" y2="28.592" gradientUnits="userSpaceOnUse"><stop stop-color="#910507"/><stop offset="1" stop-color="#EB1C24"/></linearGradient><linearGradient id="c" x1="147.643" y1="12.229" x2="140.239" y2="12.229" gradientUnits="userSpaceOnUse"><stop stop-color="#910507"/><stop offset="1" stop-color="#EB1C24"/></linearGradient><linearGradient id="d" x1="132.794" y1="28.012" x2="125.389" y2="28.012" gradientUnits="userSpaceOnUse"><stop stop-color="#EB1C24"/><stop offset="1" stop-color="#910507"/></linearGradient></defs></svg>