<svg width="66" height="67" fill="none" xmlns="http://www.w3.org/2000/svg"><path d="M5 33.977c0-15.464 12.536-28 28-28s28 12.536 28 28-12.536 28-28 28-28-12.536-28-28z" fill="#FFEBEB"/><path d="m34.167 22.31-11.667 14H33l-1.167 9.333 11.667-14H33l1.167-9.333z" stroke="#D95656" stroke-width="2.333" stroke-linecap="round" stroke-linejoin="round"/><path d="M33 56.977c-12.703 0-23-10.298-23-23H0c0 18.225 14.775 33 33 33v-10zm23-23c0 12.702-10.297 23-23 23v10c18.225 0 33-14.775 33-33H56zm-23-23c12.703 0 23 10.297 23 23h10c0-18.226-14.775-33-33-33v10zm0-10c-18.225 0-33 14.774-33 33h10c0-12.703 10.297-23 23-23v-10z" fill="#FFF5F5"/></svg>