<svg width="463" height="15" fill="none" xmlns="http://www.w3.org/2000/svg"><path fill-rule="evenodd" clip-rule="evenodd" d="M51.522 7.371C76.814 5.353 103.239 3.753 130.25 2.6v2a2199.287 2199.287 0 0 0-56.754 3.266 1468.84 1468.84 0 0 0-21.974 1.724V7.37zm-7.683.61A1671.427 1671.427 0 0 0 .976 12.14l8.654 1.638c11.074-1.262 22.59-2.478 34.209-3.539V7.98zm94.163-3.718V2.28C189.477.25 242.875-.167 294.451 1.2c41.651 1.106 82.345 3.48 119.424 7.043 16.974 1.632 33.724 3.728 49.044 5.973l-11.927.42C366.977 3.31 240.595.07 139.661 4.197l-1.098.044-.561.023z" fill="#EB1C24"/></svg>